<svg width="16" height="14" viewBox="0 0 16 14" fill="none" xmlns="http://www.w3.org/2000/svg">
<path d="M6.24059 0.199383C6.49505 -0.0664608 6.90787 -0.0664608 7.16272 0.199383C7.41737 0.465002 7.41737 0.89618 7.16272 1.16201L2.22411 6.31764H15.3458C15.707 6.31764 16 6.62347 16 7.00054C16 7.37781 15.707 7.68344 15.3458 7.68344H2.23066L7.16927 12.839C7.29179 12.9665 7.36062 13.14 7.36062 13.3205C7.36062 13.5012 7.29179 13.6742 7.16927 13.8019C7.04676 13.9309 6.87897 14.0023 6.70484 13.9999C6.53131 13.9991 6.36475 13.9281 6.24059 13.8019L0.189959 7.48562C0.0668218 7.35687 -0.00180905 7.18212 3.62737e-05 7.00054C0.0012647 6.81941 0.069284 6.64617 0.189959 6.51592L6.24059 0.199383Z" fill="#A9BFD1"/>
</svg>
