<svg width="50" height="50" viewBox="0 0 50 50" fill="none" xmlns="http://www.w3.org/2000/svg">
<path d="M33.3337 41.6666V8.33329H8.33366V39.5833C8.33366 40.1358 8.55315 40.6657 8.94385 41.0564C9.33455 41.4471 9.86446 41.6666 10.417 41.6666H33.3337ZM39.5837 45.8333H10.417C8.75939 45.8333 7.16968 45.1748 5.99758 44.0027C4.82547 42.8306 4.16699 41.2409 4.16699 39.5833V6.24996C4.16699 5.69743 4.38649 5.16752 4.77719 4.77682C5.16789 4.38612 5.69779 4.16663 6.25033 4.16663H35.417C35.9695 4.16663 36.4994 4.38612 36.8901 4.77682C37.2808 5.16752 37.5003 5.69743 37.5003 6.24996V20.8333H45.8337V39.5833C45.8337 41.2409 45.1752 42.8306 44.0031 44.0027C42.831 45.1748 41.2413 45.8333 39.5837 45.8333ZM37.5003 25V39.5833C37.5003 40.1358 37.7198 40.6657 38.1105 41.0564C38.5012 41.4471 39.0311 41.6666 39.5837 41.6666C40.1362 41.6666 40.6661 41.4471 41.0568 41.0564C41.4475 40.6657 41.667 40.1358 41.667 39.5833V25H37.5003ZM12.5003 12.5H25.0003V25H12.5003V12.5ZM16.667 16.6666V20.8333H20.8337V16.6666H16.667ZM12.5003 27.0833H29.167V31.25H12.5003V27.0833ZM12.5003 33.3333H29.167V37.5H12.5003V33.3333Z" fill="#8E24AA"/>
</svg>
