<svg width="50" height="50" viewBox="0 0 50 50" fill="none" xmlns="http://www.w3.org/2000/svg">
<path d="M4.16699 18.7375C4.1659 17.0963 4.48856 15.4709 5.11651 13.9546C5.74446 12.4382 6.66536 11.0606 7.82647 9.90065C8.98759 8.7407 10.3661 7.82118 11.8831 7.19475C13.4001 6.56831 15.0258 6.24728 16.667 6.25002H33.3337C40.2357 6.25002 45.8337 11.8646 45.8337 18.7375V43.75H16.667C9.76491 43.75 4.16699 38.1354 4.16699 31.2625V18.7375ZM41.667 39.5833V18.7375C41.6615 16.5302 40.7813 14.4151 39.2194 12.8555C37.6574 11.2958 35.541 10.4189 33.3337 10.4167H16.667C15.5729 10.4139 14.4891 10.6272 13.4776 11.0442C12.4661 11.4613 11.547 12.0739 10.7727 12.8469C9.99854 13.62 9.38456 14.5382 8.966 15.5491C8.54745 16.5599 8.33256 17.6434 8.33366 18.7375V31.2625C8.33917 33.4698 9.21931 35.5849 10.7813 37.1446C12.3433 38.7042 14.4597 39.5812 16.667 39.5833H41.667ZM29.167 22.9167H33.3337V27.0834H29.167V22.9167ZM16.667 22.9167H20.8337V27.0834H16.667V22.9167Z" fill="#8E24AA"/>
</svg>
