<svg width="50" height="50" viewBox="0 0 50 50" fill="none" xmlns="http://www.w3.org/2000/svg">
<path d="M37.5003 35.4166V45.8333H33.3337V35.4166C33.3337 26.1437 38.842 18.1562 46.7649 14.55L48.4899 18.3416C45.2122 19.8324 42.433 22.2353 40.4843 25.2631C38.5355 28.291 37.4996 31.8159 37.5003 35.4166ZM16.667 35.4166V45.8333H12.5003V35.4166C12.5006 31.8162 11.4645 28.2918 9.51582 25.2643C7.56709 22.2369 4.78809 19.8344 1.51074 18.3437L3.23574 14.55C7.24134 16.3718 10.6378 19.3082 13.0195 23.0084C15.4012 26.7086 16.6675 31.0162 16.667 35.4166ZM25.0003 25C22.2377 25 19.5881 23.9025 17.6346 21.949C15.6811 19.9955 14.5837 17.346 14.5837 14.5833C14.5837 11.8206 15.6811 9.1711 17.6346 7.2176C19.5881 5.26409 22.2377 4.16663 25.0003 4.16663C27.763 4.16663 30.4125 5.26409 32.366 7.2176C34.3195 9.1711 35.417 11.8206 35.417 14.5833C35.417 17.346 34.3195 19.9955 32.366 21.949C30.4125 23.9025 27.763 25 25.0003 25ZM25.0003 20.8333C25.8211 20.8333 26.6338 20.6716 27.3921 20.3575C28.1504 20.0434 28.8394 19.5831 29.4197 19.0027C30.0001 18.4223 30.4605 17.7333 30.7746 16.9751C31.0887 16.2168 31.2503 15.4041 31.2503 14.5833C31.2503 13.7625 31.0887 12.9498 30.7746 12.1915C30.4605 11.4332 30.0001 10.7442 29.4197 10.1639C28.8394 9.58351 28.1504 9.12314 27.3921 8.80905C26.6338 8.49495 25.8211 8.33329 25.0003 8.33329C23.3427 8.33329 21.753 8.99177 20.5809 10.1639C19.4088 11.336 18.7503 12.9257 18.7503 14.5833C18.7503 16.2409 19.4088 17.8306 20.5809 19.0027C21.753 20.1748 23.3427 20.8333 25.0003 20.8333Z" fill="#8E24AA"/>
</svg>
